<svg width="250" height="43" viewBox="0 0 250 43" fill="none" xmlns="http://www.w3.org/2000/svg">
<path fill-rule="evenodd" clip-rule="evenodd" d="M22.68 19.72V18.11L21.46 18.86C21.39 18.9 21.31 18.94 21.23 18.95V20.6L22.68 19.72ZM24.1 20.6V22.42L25.44 21.6V19.79L24.1 20.6ZM24.1 17.24V18.85L25.44 18.03V16.42L24.1 17.24ZM24.61 15.18L23.25 14.35L21.9 15.18L23.24 16.01L23.25 16.02L24.61 15.18ZM19.12 16.89L20.44 17.7C20.47 17.72 20.5 17.74 20.52 17.76C20.58 17.68 20.66 17.61 20.75 17.56L21.83 16.9L20.48 16.07L19.12 16.89ZM21.26 22.34C21.25 22.36 21.24 22.38 21.23 22.4V24.18L22.68 23.29V21.47L21.26 22.34ZM18.48 19.85V18.24L19.73 19.01C19.76 19.03 19.78 19.04 19.81 19.05V20.66L18.48 19.85ZM18.48 23.41V21.59L19.81 22.4V24.22L18.48 23.41ZM15.68 18.14V16.53L17.06 17.38V18.99L15.68 18.14ZM15.68 21.7V19.88L17.06 20.72V22.54L15.68 21.7ZM19.13 13.48L20.48 12.65L21.83 13.48L20.48 14.31L19.13 13.48ZM16.34 15.18L17.7 14.35L19.05 15.18L17.94 15.86C17.86 15.91 17.79 15.97 17.74 16.04L16.34 15.18ZM33.16 4C33.35 4.36 33.21 4.84 32.85 5.06L21.9 11.78L23.25 12.6L33.61 6.23C33.97 6.01 34.43 6.12 34.63 6.48C34.82 6.84 34.68 7.32 34.32 7.54L24.68 13.47L26.04 14.3L34.92 8.85C35.29 8.63 35.74 8.74 35.94 9.1C36.13 9.46 36 9.94 35.63 10.16L26.77 15.6C26.84 15.73 26.88 15.88 26.88 16.04V17.15L36.29 11.4C36.66 11.18 37.11 11.29 37.31 11.65C37.51 12.01 37.37 12.49 37 12.71L26.88 18.9V20.71L37.68 14.09C38.04 13.87 38.5 13.98 38.7 14.34C38.9 14.7 38.75 15.18 38.39 15.4L26.89 22.45V36.97C26.89 37.42 26.57 37.79 26.18 37.79C25.79 37.79 25.47 37.42 25.47 36.97V23.34L24.13 24.16V36.99C24.13 37.44 23.81 37.81 23.42 37.81C23.03 37.81 22.71 37.44 22.71 36.99V25.03L21.37 25.85C21.33 25.87 21.3 25.89 21.26 25.9V36.98C21.26 37.43 20.94 37.8 20.55 37.8C20.16 37.8 19.84 37.43 19.84 36.98V25.98L18.51 25.16V36.99C18.51 37.44 18.19 37.81 17.8 37.81C17.41 37.81 17.09 37.44 17.09 36.99V24.29L15.71 23.44V36.99C15.71 37.44 15.39 37.81 15 37.81C14.61 37.81 14.29 37.44 14.29 36.99V22.57L2.82 15.56C2.46 15.34 2.32 14.86 2.51 14.5C2.71 14.14 3.16 14.03 3.53 14.25L14.26 20.82V19.01L4.21 12.87C3.84 12.65 3.71 12.17 3.9 11.81C4.09 11.45 4.55 11.34 4.92 11.56L14.26 17.27V16.05C14.26 15.92 14.29 15.8 14.33 15.69L5.57 10.32C5.2 10.09 5.07 9.62 5.26 9.26C5.46 8.9 5.91 8.79 6.28 9.01L14.95 14.33C15 14.28 15.06 14.23 15.12 14.19L16.28 13.48L6.87 7.69C6.51 7.47 6.36 6.99 6.56 6.63C6.75 6.27 7.21 6.16 7.58 6.38L17.7 12.6L19.05 11.77L8.34 5.21C7.98 4.99 7.84 4.51 8.03 4.14C8.23 3.78 8.68 3.67 9.05 3.89L20.48 10.9L32.15 3.75C32.51 3.53 32.97 3.64 33.16 4Z" fill="white"/>
<path d="M59.8301 19H57.7207V13.208H51.7969V19H49.6963V6.15039H51.7969V11.4062H57.7207V6.15039H59.8301V19ZM71.1855 19L69.9023 15.4316H64.9893L63.7324 19H61.5176L66.3252 6.09766H68.6104L73.418 19H71.1855ZM69.3486 13.6211L68.1445 10.123C68.0566 9.88867 67.9336 9.51953 67.7754 9.01562C67.623 8.51172 67.5176 8.14258 67.459 7.9082C67.3008 8.62891 67.0693 9.41699 66.7646 10.2725L65.6045 13.6211H69.3486ZM75.1143 6.15039H78.9287C80.6982 6.15039 81.9756 6.4082 82.7607 6.92383C83.5518 7.43945 83.9473 8.25391 83.9473 9.36719C83.9473 10.1172 83.7539 10.7412 83.3672 11.2393C82.9805 11.7373 82.4238 12.0508 81.6973 12.1797V12.2676C82.5996 12.4375 83.2617 12.7744 83.6836 13.2783C84.1113 13.7764 84.3252 14.4531 84.3252 15.3086C84.3252 16.4629 83.9209 17.3682 83.1123 18.0244C82.3096 18.6748 81.1904 19 79.7549 19H75.1143V6.15039ZM77.2148 11.459H79.2363C80.1152 11.459 80.7568 11.3213 81.1611 11.0459C81.5654 10.7646 81.7676 10.29 81.7676 9.62207C81.7676 9.01855 81.5479 8.58203 81.1084 8.3125C80.6748 8.04297 79.9834 7.9082 79.0342 7.9082H77.2148V11.459ZM77.2148 13.1641V17.2334H79.4473C80.3262 17.2334 80.9883 17.0664 81.4336 16.7324C81.8848 16.3926 82.1104 15.8594 82.1104 15.1328C82.1104 14.4648 81.8818 13.9697 81.4248 13.6475C80.9678 13.3252 80.2734 13.1641 79.3418 13.1641H77.2148ZM86.9971 6.15039H88.9219V12.8301C88.9219 13.5273 88.9043 14.2334 88.8691 14.9482C88.834 15.6572 88.8076 16.1377 88.79 16.3896H88.8691L95.4346 6.15039H97.8867V19H95.9531V12.373C95.9531 11.3594 96.0088 10.1289 96.1201 8.68164H96.0498L89.458 19H86.9971V6.15039ZM108.882 6.15039V7.95215H103.354V19H101.253V6.15039H108.882ZM118.945 19L117.662 15.4316H112.749L111.492 19H109.277L114.085 6.09766H116.37L121.178 19H118.945ZM117.108 13.6211L115.904 10.123C115.816 9.88867 115.693 9.51953 115.535 9.01562C115.383 8.51172 115.277 8.14258 115.219 7.9082C115.061 8.62891 114.829 9.41699 114.524 10.2725L113.364 13.6211H117.108ZM127.312 19H125.212V7.95215H121.433V6.15039H131.092V7.95215H127.312V19ZM144.478 12.5576C144.478 14.6494 143.953 16.2754 142.904 17.4355C141.861 18.5957 140.382 19.1758 138.466 19.1758C136.526 19.1758 135.035 18.6016 133.992 17.4531C132.955 16.2988 132.437 14.6611 132.437 12.54C132.437 10.4189 132.958 8.79004 134.001 7.65332C135.05 6.5166 136.544 5.94824 138.483 5.94824C140.394 5.94824 141.87 6.52539 142.913 7.67969C143.956 8.83398 144.478 10.46 144.478 12.5576ZM134.669 12.5576C134.669 14.1396 134.988 15.3408 135.627 16.1611C136.266 16.9756 137.212 17.3828 138.466 17.3828C139.714 17.3828 140.654 16.9785 141.287 16.1699C141.926 15.3613 142.245 14.1572 142.245 12.5576C142.245 10.9814 141.929 9.78613 141.296 8.97168C140.669 8.15723 139.731 7.75 138.483 7.75C137.224 7.75 136.271 8.15723 135.627 8.97168C134.988 9.78613 134.669 10.9814 134.669 12.5576ZM155.745 10.0352C155.745 11.377 155.306 12.4053 154.427 13.1201C153.548 13.835 152.297 14.1924 150.674 14.1924H149.338V19H147.237V6.15039H150.938C152.543 6.15039 153.744 6.47852 154.541 7.13477C155.344 7.79102 155.745 8.75781 155.745 10.0352ZM149.338 12.4258H150.454C151.532 12.4258 152.323 12.2383 152.827 11.8633C153.331 11.4883 153.583 10.9023 153.583 10.1055C153.583 9.36719 153.357 8.81641 152.906 8.45312C152.455 8.08984 151.752 7.9082 150.797 7.9082H149.338V12.4258Z" fill="white"/>
<path opacity="0.5" d="M53.9824 26.4336V27.3242H50.168V35H49.1719V26.4336H53.9824ZM60.791 35L59.7363 32.2812H56.3027L55.2539 35H54.2461L57.5977 26.3984H58.4941L61.8223 35H60.791ZM59.4375 31.3965L58.4355 28.6953C58.4121 28.625 58.373 28.5098 58.3184 28.3496C58.2676 28.1895 58.2148 28.0234 58.1602 27.8516C58.1055 27.6797 58.0605 27.541 58.0254 27.4355C57.9863 27.5957 57.9434 27.7559 57.8965 27.916C57.8535 28.0723 57.8105 28.2188 57.7676 28.3555C57.7246 28.4883 57.6875 28.6016 57.6562 28.6953L56.6367 31.3965H59.4375ZM63.0117 35V26.4336H68.0449V27.3125H64.0078V30.0781H65.3379C66.1621 30.0781 66.8066 30.1797 67.2715 30.3828C67.7363 30.5859 68.0625 30.8691 68.25 31.2324C68.4414 31.5957 68.5371 32.0176 68.5371 32.498C68.5371 33.2871 68.3008 33.9023 67.8281 34.3438C67.3594 34.7812 66.5801 35 65.4902 35H63.0117ZM64.0078 34.1445H65.3848C66.1582 34.1445 66.7051 34.0098 67.0254 33.7402C67.3496 33.4668 67.5117 33.0527 67.5117 32.498C67.5117 32.1113 67.4336 31.8047 67.2773 31.5781C67.1211 31.3516 66.875 31.1895 66.5391 31.0918C66.2031 30.9941 65.7617 30.9453 65.2148 30.9453H64.0078V34.1445ZM75.7324 35L74.6777 32.2812H71.2441L70.1953 35H69.1875L72.5391 26.3984H73.4355L76.7637 35H75.7324ZM74.3789 31.3965L73.377 28.6953C73.3535 28.625 73.3145 28.5098 73.2598 28.3496C73.209 28.1895 73.1562 28.0234 73.1016 27.8516C73.0469 27.6797 73.002 27.541 72.9668 27.4355C72.9277 27.5957 72.8848 27.7559 72.8379 27.916C72.7949 28.0723 72.752 28.2188 72.709 28.3555C72.666 28.4883 72.6289 28.6016 72.5977 28.6953L71.5781 31.3965H74.3789ZM80.1914 26.4336C81.2969 26.4336 82.1035 26.6504 82.6113 27.084C83.123 27.5137 83.3789 28.1309 83.3789 28.9355C83.3789 29.2988 83.3184 29.6445 83.1973 29.9727C83.0801 30.2969 82.8887 30.584 82.623 30.834C82.3574 31.0801 82.0078 31.2754 81.5742 31.4199C81.1445 31.5605 80.6172 31.6309 79.9922 31.6309H78.9492V35H77.9531V26.4336H80.1914ZM80.0977 27.2832H78.9492V30.7754H79.8809C80.4277 30.7754 80.8828 30.7168 81.2461 30.5996C81.6133 30.4824 81.8887 30.293 82.0723 30.0312C82.2559 29.7656 82.3477 29.4141 82.3477 28.9766C82.3477 28.4062 82.166 27.9824 81.8027 27.7051C81.4395 27.4238 80.8711 27.2832 80.0977 27.2832ZM85.1836 26.4336H86.1152V31.3848C86.1152 31.5723 86.1133 31.7773 86.1094 32C86.1055 32.2188 86.0996 32.4336 86.0918 32.6445C86.084 32.8555 86.0742 33.0469 86.0625 33.2188C86.0547 33.3906 86.0469 33.5234 86.0391 33.6172H86.0859L90.8555 26.4336H91.9512V35H91.0195V30.1074C91.0195 29.9004 91.0234 29.6816 91.0312 29.4512C91.0391 29.2168 91.0469 28.9902 91.0547 28.7715C91.0664 28.5527 91.0781 28.3574 91.0898 28.1855C91.1016 28.0098 91.1094 27.875 91.1133 27.7812H91.0605L86.2852 35H85.1836V26.4336ZM96.9199 35H95.918V27.3125H93.2227V26.4336H99.6035V27.3125H96.9199V35ZM100.898 35V26.4336H101.895V30.0781H103.266C104.039 30.0781 104.654 30.1836 105.111 30.3945C105.568 30.6016 105.896 30.8887 106.096 31.2559C106.295 31.6191 106.395 32.0332 106.395 32.498C106.395 33.2637 106.152 33.873 105.668 34.3262C105.188 34.7754 104.432 35 103.4 35H100.898ZM101.895 34.1504H103.301C104.008 34.1504 104.527 34.0137 104.859 33.7402C105.195 33.4668 105.363 33.0527 105.363 32.498C105.363 32.1113 105.281 31.8066 105.117 31.584C104.957 31.3574 104.713 31.1973 104.385 31.1035C104.061 31.0059 103.65 30.957 103.154 30.957H101.895V34.1504ZM107.695 35V26.4336H108.691V35H107.695Z" fill="white"/>
</svg>
